<svg width="25" height="25" viewBox="0 0 25 25" fill="none" xmlns="http://www.w3.org/2000/svg">
<path fill-rule="evenodd" clip-rule="evenodd" d="M8.5835 4.25L19.8335 4.25C20.0324 4.25 20.2232 4.32902 20.3638 4.46967C20.5045 4.61032 20.5835 4.80109 20.5835 5V16.25C20.5835 16.6642 20.2477 17 19.8335 17C19.4193 17 19.0835 16.6642 19.0835 16.25V6.81066L5.36383 20.5303C5.07093 20.8232 4.59606 20.8232 4.30317 20.5303C4.01027 20.2374 4.01027 19.7626 4.30317 19.4697L18.0228 5.75L8.5835 5.75C8.16928 5.75 7.8335 5.41421 7.8335 5C7.8335 4.58579 8.16928 4.25 8.5835 4.25Z" fill="#141414"/>
</svg>
