<svg width="20" height="20" viewBox="0 0 20 20" fill="none" xmlns="http://www.w3.org/2000/svg">
<path d="M8.27478 1.9429C9.04747 0.62493 10.9528 0.624932 11.7255 1.9429L13.4513 4.88664C13.7333 5.36761 14.2032 5.70904 14.7478 5.8286L18.0808 6.5603C19.573 6.8879 20.1618 8.69996 19.1471 9.8421L16.8807 12.3931C16.5105 12.8099 16.331 13.3624 16.3855 13.9173L16.7196 17.3132C16.8691 18.8337 15.3277 19.9536 13.9279 19.3415L10.8014 17.9744C10.2906 17.751 9.70968 17.751 9.19885 17.9744L6.07232 19.3415C4.67252 19.9536 3.1311 18.8337 3.28066 17.3132L3.61471 13.9173C3.66929 13.3624 3.48979 12.8099 3.1195 12.3931L0.853144 9.8421C-0.161542 8.69995 0.427233 6.8879 1.91947 6.5603L5.25245 5.8286C5.79701 5.70904 6.26696 5.36761 6.54893 4.88664L8.27478 1.9429Z" fill="#A0A0A0"/>
</svg>
