<svg width="150" height="151" viewBox="0 0 150 151" fill="none" xmlns="http://www.w3.org/2000/svg">
<path d="M99.999 150.499V125.5C113.832 125.5 124.999 114.333 124.999 100.5H149.998C149.998 128.166 127.582 150.499 99.999 150.499Z" fill="#FFD11A"/>
<path d="M99.9992 150.499V125.5C86.166 125.5 74.9995 114.333 74.9995 100.5H49.9998C49.9998 128.166 72.4162 150.499 99.9992 150.499Z" fill="#FFD11A"/>
<path d="M0 100.497H24.9997C24.9997 114.33 36.1662 125.497 49.9994 125.497V150.496C22.4164 150.496 0 128.163 0 100.497Z" fill="#FFD11A"/>
<path d="M0 100.498H24.9997C24.9997 86.6653 36.1662 75.4987 49.9994 75.4987V50.499C22.4164 50.499 0 72.9154 0 100.498Z" fill="#FFD11A"/>
<path d="M49.9994 0.5V25.4997C36.1662 25.4997 24.9997 36.6662 24.9997 50.4994H0C0 22.9164 22.4164 0.5 49.9994 0.5Z" fill="#FFD11A"/>
<path d="M49.9995 0.5V25.4997C63.8327 25.4997 74.9992 36.6662 74.9992 50.4994H99.9989C99.9989 22.9164 77.5825 0.5 49.9995 0.5Z" fill="#FFD11A"/>
<path d="M149.998 50.4994H124.998C124.998 36.6662 113.832 25.4997 99.9985 25.4997V0.5C127.582 0.5 149.998 22.9164 149.998 50.4994Z" fill="#FFD11A"/>
<path d="M149.998 50.499H124.998C124.998 64.3322 113.832 75.4987 99.9985 75.4987V100.498C127.582 100.498 149.998 78.1654 149.998 50.499Z" fill="#FFD11A"/>
</svg>
